<svg width="422" height="128" viewBox="0 0 422 128" fill="none" xmlns="http://www.w3.org/2000/svg">
<path fill-rule="evenodd" clip-rule="evenodd" d="M78.7029 41.2771H2.84974C2.15941 41.2771 1.55275 41.549 1.09253 42.0093C0.653221 42.4486 0.360352 43.0761 0.360352 43.7665V84.0151C0.360352 84.7054 0.632302 85.3121 1.09253 85.7723C1.53183 86.2116 2.15941 86.5045 2.84974 86.5045H78.7029C79.3933 86.5045 79.9999 86.2325 80.4602 85.7723C80.8995 85.333 81.1923 84.7054 81.1923 84.0151V43.7665C81.1923 43.0761 80.9204 42.4695 80.4602 42.0093C80.0209 41.549 79.3933 41.2771 78.7029 41.2771Z" fill="#FFFDFC"/>
<path d="M80.832 43.7663C80.832 43.1762 80.601 42.6603 80.2051 42.2644L80.1992 42.2585C79.83 41.872 79.2978 41.6375 78.7031 41.6374H2.84961C2.2595 41.6375 1.74363 41.8684 1.34766 42.2644C0.970993 42.641 0.72074 43.1784 0.720703 43.7663V84.0154C0.720768 84.6054 0.951713 85.1214 1.34766 85.5173C1.72432 85.8939 2.26168 86.1442 2.84961 86.1443H78.7031C79.2932 86.1442 79.8091 85.9132 80.2051 85.5173C80.5817 85.1407 80.832 84.6033 80.832 84.0154V43.7663ZM81.5527 84.0154C81.5527 84.8079 81.2167 85.5252 80.7148 86.0271C80.1904 86.5515 79.4935 86.8649 78.7031 86.865H2.84961C2.05703 86.8649 1.33978 86.5289 0.837891 86.0271C0.313498 85.5027 6.6012e-05 84.8058 0 84.0154V43.7663C3.72263e-05 42.9737 0.336001 42.2565 0.837891 41.7546C1.36231 41.2302 2.05916 40.9168 2.84961 40.9167H78.7031C79.4888 40.9168 80.2114 41.2269 80.7207 41.7605C81.2419 42.2843 81.5527 42.9786 81.5527 43.7663V84.0154Z" fill="#004F87"/>
<path fill-rule="evenodd" clip-rule="evenodd" d="M61.8935 40.9213H126.486C129.007 40.9213 131.025 42.2048 131.025 43.7618V84.2429C131.025 85.8209 128.974 87.0833 126.486 87.0833H61.8935V40.9213Z" fill="#004F87"/>
<path d="M92.2002 64.2463L91.1543 61.5896H85.9454L84.9622 64.2463H81.4478L87.075 50.7534H90.2338L95.8193 64.2463H92.2002ZM88.6021 54.3306L86.8868 58.9747H90.2548L88.6021 54.3306ZM103.12 59.665V63.6606H100.652V59.665H96.6142V57.2593H100.631V53.2637H103.099V57.2593H107.137V59.665H103.12ZM82.7029 76.254V68.744H84.8994C85.2551 68.744 85.6107 68.7858 85.9245 68.8486C86.2383 68.9113 86.5102 69.0368 86.7403 69.1833C86.9704 69.3506 87.1378 69.5389 87.2633 69.8108C87.3888 70.0619 87.4516 70.3757 87.4516 70.7522C87.4516 71.0242 87.4097 71.2752 87.3051 71.5053C87.2005 71.7354 87.075 71.9237 86.9077 72.091C86.7403 72.2584 86.5311 72.3839 86.301 72.4885C86.0709 72.5931 85.8199 72.6559 85.5479 72.6768L87.7235 76.254H86.8031L84.7321 72.7395H83.4769V76.254H82.7029ZM83.456 72.091H84.7739C85.3806 72.091 85.8617 71.9864 86.1964 71.7563C86.5311 71.5262 86.6985 71.1915 86.6985 70.7522C86.6985 70.5012 86.6567 70.292 86.5521 70.1246C86.4684 69.9573 86.3429 69.8108 86.1755 69.7062C86.0082 69.6016 85.8199 69.518 85.5898 69.4761C85.3597 69.4343 85.1086 69.3925 84.8158 69.3925H83.456V72.091ZM91.9701 73.0533C91.9701 72.614 91.8655 72.3002 91.6354 72.091C91.4053 71.8819 91.0915 71.7773 90.6522 71.7773C90.3594 71.7773 90.0874 71.84 89.8364 71.9446C89.5854 72.0492 89.3762 72.1956 89.1879 72.363L88.7904 71.8818C88.9996 71.6727 89.2716 71.5053 89.6063 71.3798C89.941 71.2543 90.3175 71.1706 90.7359 71.1706C91.0079 71.1706 91.2589 71.2124 91.489 71.2752C91.7191 71.3379 91.9283 71.4635 92.0956 71.6099C92.263 71.7563 92.4094 71.9446 92.514 72.1747C92.6186 72.4048 92.6605 72.6559 92.6605 72.9696V75.1453C92.6605 75.3335 92.6605 75.5427 92.6814 75.731C92.7023 75.9402 92.7232 76.1075 92.7441 76.254H92.0956C92.0747 76.1285 92.0538 76.0029 92.0329 75.8565C92.012 75.7101 92.012 75.5846 92.012 75.4381H91.9911C91.7609 75.7728 91.5099 76.0029 91.217 76.1494C90.9242 76.2958 90.5895 76.3586 90.192 76.3586C90.0037 76.3586 89.8155 76.3377 89.6063 76.2749C89.3971 76.2121 89.2297 76.1285 89.0624 76.0239C88.895 75.8983 88.7695 75.7519 88.644 75.5636C88.5394 75.3754 88.4766 75.1453 88.4766 74.8733C88.4766 74.4968 88.5812 74.183 88.7695 73.9738C88.9578 73.7437 89.2297 73.5763 89.5435 73.4717C89.8573 73.3671 90.2338 73.2834 90.6522 73.2625C91.0706 73.2207 91.5099 73.2207 91.9492 73.2207V73.0533H91.9701ZM91.7609 73.7646C91.4681 73.7646 91.1752 73.7855 90.8614 73.8064C90.5686 73.8273 90.2966 73.8901 90.0456 73.9529C89.7945 74.0365 89.6063 74.1411 89.4598 74.2666C89.3134 74.3922 89.2297 74.6014 89.2297 74.8315C89.2297 74.9988 89.2716 75.1662 89.3343 75.2708C89.3971 75.3754 89.4807 75.48 89.6063 75.5636C89.7318 75.6473 89.8364 75.6892 89.9828 75.731C90.1292 75.7728 90.2548 75.7728 90.4012 75.7728C90.6522 75.7728 90.8823 75.731 91.0706 75.6473C91.2589 75.5636 91.4262 75.4381 91.5727 75.2917C91.6982 75.1453 91.8028 74.957 91.8865 74.7687C91.9701 74.5804 91.9911 74.3712 91.9911 74.1411V73.7646H91.7609ZM96.5933 71.8818H95.1917V74.7687C95.1917 74.957 95.2126 75.1034 95.2545 75.2289C95.2963 75.3544 95.3381 75.4381 95.4009 75.5009C95.4637 75.5636 95.5473 75.6055 95.631 75.6473C95.7147 75.6682 95.8193 75.6892 95.9239 75.6892C96.0285 75.6892 96.1331 75.6682 96.2377 75.6473C96.3423 75.6264 96.4469 75.5846 96.5515 75.5218L96.5933 76.1494C96.4678 76.1912 96.3423 76.2331 96.1958 76.254C96.0494 76.2749 95.903 76.2958 95.7565 76.2958C95.631 76.2958 95.4846 76.2749 95.3381 76.2331C95.1917 76.1912 95.0453 76.1285 94.9198 76.0239C94.7942 75.9193 94.6896 75.7938 94.606 75.6264C94.5223 75.459 94.4804 75.2289 94.4804 74.957V71.8609H93.4554V71.2543H94.4804V69.8527H95.1917V71.2543H96.5933V71.8818ZM98.4551 76.254H97.7439V71.2961H98.4551V76.254ZM98.6015 69.3715C98.6015 69.518 98.5388 69.6435 98.4342 69.7272C98.3296 69.8318 98.2041 69.8736 98.0786 69.8736C97.953 69.8736 97.8275 69.8318 97.7229 69.7272C97.6183 69.6226 97.5556 69.518 97.5556 69.3715C97.5556 69.2251 97.6183 69.0996 97.7229 69.0159C97.8275 68.9113 97.953 68.8695 98.0786 68.8695C98.2041 68.8695 98.3296 68.9113 98.4342 69.0159C98.5388 69.0996 98.6015 69.2251 98.6015 69.3715ZM100.986 71.2961C101.007 71.4216 101.007 71.589 101.028 71.7354C101.028 71.9028 101.049 72.0283 101.049 72.1329H101.07C101.216 71.84 101.447 71.6099 101.76 71.4216C102.074 71.2334 102.409 71.1497 102.764 71.1497C103.392 71.1497 103.852 71.3379 104.166 71.7145C104.48 72.091 104.626 72.5931 104.626 73.1998V76.2331H103.915V73.4926C103.915 73.2416 103.894 72.9906 103.852 72.7814C103.81 72.5722 103.748 72.3839 103.643 72.2375C103.538 72.091 103.413 71.9655 103.225 71.8818C103.057 71.7982 102.827 71.7563 102.576 71.7563C102.388 71.7563 102.2 71.7982 102.032 71.8818C101.844 71.9655 101.698 72.0701 101.551 72.2375C101.405 72.4048 101.3 72.5931 101.216 72.8441C101.133 73.0952 101.091 73.3671 101.091 73.7018V76.254H100.38V72.3839C100.38 72.2584 100.38 72.0701 100.359 71.8609C100.359 71.6517 100.338 71.4635 100.317 71.2961H100.986ZM106.739 77.2372C106.927 77.4882 107.199 77.6974 107.555 77.8857C107.89 78.053 108.266 78.1576 108.643 78.1576C108.998 78.1576 109.291 78.1158 109.542 78.0112C109.793 77.9066 109.982 77.7602 110.128 77.5928C110.274 77.4254 110.4 77.2163 110.463 76.9652C110.526 76.7351 110.567 76.4841 110.567 76.2121V75.2708H110.526C110.337 75.5846 110.065 75.8147 109.71 75.982C109.354 76.1494 108.998 76.2331 108.643 76.2331C108.266 76.2331 107.911 76.1703 107.597 76.0448C107.283 75.9193 107.011 75.7519 106.802 75.5218C106.572 75.2917 106.404 75.0407 106.279 74.7269C106.153 74.4131 106.091 74.0784 106.091 73.7227C106.091 73.3671 106.153 73.0324 106.279 72.7186C106.404 72.4048 106.572 72.1329 106.802 71.9028C107.032 71.6727 107.283 71.4844 107.597 71.3589C107.911 71.2334 108.266 71.1497 108.643 71.1497C108.998 71.1497 109.354 71.2333 109.689 71.4007C110.023 71.5681 110.295 71.8191 110.505 72.1329H110.526V71.2752H111.237V76.1912C111.237 76.4632 111.195 76.756 111.132 77.0489C111.048 77.3627 110.923 77.6346 110.714 77.8857C110.505 78.1367 110.233 78.3459 109.898 78.5132C109.563 78.6806 109.103 78.7643 108.559 78.7643C108.099 78.7643 107.66 78.6806 107.262 78.4923C106.844 78.325 106.488 78.074 106.195 77.7602L106.739 77.2372ZM106.886 73.7018C106.886 73.9529 106.927 74.2039 107.011 74.434C107.095 74.6641 107.22 74.8733 107.367 75.0407C107.534 75.208 107.722 75.3545 107.952 75.459C108.183 75.5636 108.455 75.6055 108.747 75.6055C109.019 75.6055 109.27 75.5636 109.5 75.459C109.731 75.3754 109.94 75.2289 110.107 75.0616C110.274 74.8942 110.4 74.685 110.505 74.4549C110.609 74.2248 110.651 73.9529 110.651 73.66C110.651 73.409 110.609 73.1579 110.505 72.9278C110.4 72.6977 110.274 72.4885 110.107 72.3212C109.94 72.1538 109.731 72.0074 109.5 71.9028C109.27 71.7982 109.019 71.7354 108.747 71.7354C108.455 71.7354 108.183 71.7982 107.952 71.9028C107.722 72.0074 107.534 72.1538 107.367 72.3212C107.199 72.4885 107.095 72.6977 107.011 72.9278C106.927 73.1998 106.886 73.4508 106.886 73.7018Z" fill="white"/>
<path d="M43.5763 80.6261C43.7437 80.6261 43.911 80.6889 44.0156 80.8144C44.1411 80.9399 44.2039 81.0863 44.2039 81.2537C44.2039 81.421 44.1411 81.5884 44.0156 81.7139C43.8901 81.8394 43.7437 81.9022 43.5763 81.9022C43.409 81.9022 43.2416 81.8394 43.137 81.7139C43.0115 81.5884 42.9487 81.442 42.9487 81.2537C42.9487 81.0863 43.0115 80.9399 43.137 80.8144C43.2625 80.6889 43.409 80.6261 43.5763 80.6261ZM43.5763 80.7098C43.4299 80.7098 43.3044 80.7725 43.1998 80.8771C43.0952 80.9817 43.0324 81.1073 43.0324 81.2537C43.0324 81.4001 43.0952 81.5256 43.1998 81.6511C43.3044 81.7557 43.4299 81.8185 43.5763 81.8185C43.7228 81.8185 43.8483 81.7557 43.9529 81.6511C44.0575 81.5466 44.1202 81.421 44.1202 81.2537C44.1202 81.1073 44.0575 80.9817 43.9529 80.8771C43.8692 80.7725 43.7228 80.7098 43.5763 80.7098ZM24.1214 73.5554C25.0628 73.5554 25.8368 73.7855 26.297 74.2667C26.6945 74.6641 26.8409 75.1243 26.8409 75.6682C26.8409 76.6096 26.3807 77.1535 25.7531 77.4673C26.6945 77.8648 27.3011 78.4087 27.3011 79.4965C27.3011 80.919 26.1506 81.7139 24.3934 81.7557H20.3141V73.5345H24.1214V73.5554ZM31.8825 73.5554C32.8238 73.5554 33.5978 73.7855 34.0581 74.2667C34.4555 74.6641 34.602 75.1243 34.602 75.6682C34.602 76.6096 34.1417 77.1535 33.5142 77.4673C34.4555 77.8648 35.0622 78.4087 35.0622 79.4965C35.0622 80.919 33.9116 81.7139 32.1544 81.7557H28.0752V73.5345H31.8825V73.5554ZM39.6644 73.5554C40.6058 73.5554 41.3798 73.7855 41.84 74.2667C42.2375 74.6641 42.3839 75.1243 42.3839 75.6682C42.3839 76.6096 41.9237 77.1535 41.2961 77.4673C42.2375 77.8648 42.8441 78.4087 42.8441 79.4965C42.8441 80.919 41.6936 81.7139 39.9364 81.7557H35.8571V73.5345H39.6644V73.5554ZM43.5763 80.919C43.66 80.919 43.7228 80.919 43.7646 80.9399C43.8274 80.9608 43.8692 81.0236 43.8692 81.1073C43.8692 81.17 43.8483 81.2118 43.8064 81.2537C43.7855 81.2746 43.7437 81.2746 43.7018 81.2955C43.7646 81.2955 43.7855 81.3374 43.8274 81.3583C43.8483 81.4001 43.8692 81.421 43.8692 81.4629V81.5047C43.8692 81.5256 43.8692 81.5466 43.8692 81.5466C43.8692 81.5675 43.8692 81.5675 43.8692 81.5884H43.7646V81.5047C43.7646 81.421 43.7437 81.3792 43.7018 81.3374C43.6809 81.3164 43.6391 81.3164 43.5554 81.3164H43.4508V81.5884H43.3253V80.8981H43.5763V80.919ZM24.2051 78.4087H22.0295V80.2077H24.2051C24.9791 80.2077 25.523 79.8939 25.523 79.35C25.523 78.8061 25.1255 78.4087 24.2051 78.4087ZM31.9661 78.4087H29.7905V80.2077H31.9661C32.7402 80.2077 33.2841 79.8939 33.2841 79.35C33.2841 78.8061 32.9075 78.4087 31.9661 78.4087ZM39.6644 78.4087H37.5725V80.2077H39.7272C40.5012 80.2077 40.9614 79.8939 40.9614 79.35C40.9823 78.8061 40.5849 78.4087 39.6644 78.4087ZM23.8913 75.208H22.0295V76.9234H23.7449C24.5189 76.9234 25.0628 76.6933 25.0628 76.0657C25.0628 75.5218 24.6653 75.208 23.8913 75.208ZM31.6524 75.208H29.7905V76.9234H31.5059C32.2799 76.9234 32.8238 76.6933 32.8238 76.0657C32.8238 75.5218 32.4264 75.208 31.6524 75.208ZM39.4134 75.208H37.6353V76.9234H39.267C40.041 76.9234 40.5849 76.6933 40.5849 76.0657C40.5849 75.5218 40.1874 75.208 39.4134 75.208ZM38.4929 68.1582L39.0159 69.8109H35.3132L34.6229 72.1538H28.4935L27.8032 69.8109H24.1005L24.6235 68.1582H38.4929ZM28.5981 56.1715L29.0793 56.569C29.0793 56.569 28.5981 57.2384 29.2466 57.866L29.3512 57.9496L32.4891 60.2298C33.0958 60.711 33.5142 61.3595 33.7234 62.0707C33.7861 62.2799 33.9953 63.305 33.6188 64.2882C33.556 64.4346 33.4723 64.581 33.4096 64.7275L33.2841 64.9367L31.5059 67.3633L31.0039 66.9449C31.0248 66.924 31.0457 66.9031 31.0457 66.8822C31.0666 66.8403 31.0875 66.8194 31.1085 66.7776C31.213 66.5893 31.213 66.401 31.1712 66.2755C31.1712 66.2337 31.1503 66.2127 31.1503 66.1709V66.15C31.1503 66.1291 31.1294 66.1081 31.1085 66.0872L31.0666 66.0036L31.0248 65.9408C30.962 65.878 30.8993 65.8153 30.8365 65.7525L30.7947 65.7107L27.5522 63.3886C26.8618 62.8447 26.3807 62.0498 26.2343 61.1921C26.2133 61.0248 26.2133 60.8365 26.2133 60.6691C26.2133 59.9788 26.3598 59.3512 26.7154 58.7864L26.8409 58.5981L28.117 56.8828L28.5981 56.1715ZM31.5059 45.168L31.9034 45.4818C31.6733 45.7956 31.5896 46.193 31.6733 46.5696C31.736 46.9043 31.9243 47.1971 32.1753 47.4063L32.2799 47.49L37.3215 51.1718C38.4093 51.9458 39.0368 53.0545 39.267 54.3097C39.4762 55.4812 39.2251 56.7154 38.5557 57.7195L38.4093 57.9078L35.0622 62.531L34.602 62.1962C34.602 62.1962 34.8321 61.8825 34.9576 61.4432L34.9994 61.3176L35.0413 61.1503C35.0831 60.9411 35.0831 60.7319 35.0831 60.5227L35.0622 60.3763V60.3344C35.0413 60.1671 34.9994 60.0206 34.9367 59.8533C34.9367 59.8324 34.9367 59.8324 34.9158 59.8115C34.7693 59.4349 34.4974 59.0793 34.1836 58.8073L34.0371 58.7027L29.8533 55.6485C28.7655 54.8745 28.1379 53.7658 27.9078 52.5106C27.8241 52.2805 27.8241 51.9667 27.8241 51.7366C27.8241 50.7953 28.0752 49.9376 28.5981 49.1426L28.7446 48.9334L31.5059 45.168Z" fill="#004F87"/>
<path d="M188.576 49.3391H198.444V51.2368H194.648V61.4839H192.371V51.2368H188.576V49.3391ZM197.874 52.5651H199.772V54.273C199.772 54.0832 199.962 53.8934 200.151 53.5139C200.341 53.1344 200.531 53.1344 200.721 52.9446C200.911 52.7549 201.29 52.5651 201.48 52.5651C201.67 52.3753 202.049 52.3753 202.429 52.3753C202.618 52.3753 202.808 52.3753 202.808 52.3753H202.998V54.273C202.808 54.273 202.808 54.273 202.618 54.273C202.429 54.273 202.429 54.273 202.239 54.273C201.859 54.273 201.67 54.273 201.29 54.4627C200.911 54.6525 200.721 54.8422 200.531 55.032C200.341 55.2218 200.151 55.6013 199.962 55.9808C199.772 56.3603 199.772 56.7399 199.772 57.3091V61.4839H197.874V52.5651ZM211.917 61.4839H210.019V60.3453C209.829 60.7248 209.45 61.1044 208.881 61.4839C208.501 61.6737 207.932 61.8634 207.362 61.8634C206.224 61.8634 205.465 61.6737 204.896 60.9146C204.326 60.1556 204.136 59.3965 204.136 58.2579V52.7549H206.034V58.0682C206.034 58.8272 206.224 59.3965 206.414 59.776C206.793 60.1556 207.173 60.3453 207.742 60.3453C208.121 60.3453 208.501 60.3453 208.691 60.1556C208.881 59.9658 209.26 59.776 209.26 59.5863C209.45 59.3965 209.64 59.2068 209.64 58.8272C209.64 58.4477 209.829 58.2579 209.829 57.8784V52.7549H211.727V61.4839H211.917ZM215.143 58.6375C215.143 59.2068 215.332 59.5863 215.712 59.776C216.091 59.9658 216.471 60.1556 217.04 60.1556C217.23 60.1556 217.42 60.1556 217.61 60.1556C217.799 60.1556 217.989 60.1556 218.179 59.9658C218.369 59.9658 218.558 59.776 218.748 59.5863C218.938 59.3965 218.938 59.2068 218.938 59.017C218.938 58.8272 218.748 58.6375 218.748 58.4477C218.558 58.2579 218.369 58.2579 218.179 58.0682C217.989 58.0682 217.61 57.8784 217.23 57.8784C216.851 57.8784 216.471 57.6887 216.281 57.6887C215.902 57.6887 215.522 57.4989 215.332 57.3091C215.143 57.1194 214.763 57.1194 214.384 56.9296C214.194 56.7399 213.814 56.5501 213.814 56.1706C213.625 55.791 213.625 55.4115 213.625 55.032C213.625 54.4627 213.814 54.0832 214.004 53.8934C214.194 53.7037 214.573 53.3241 214.953 53.1344C215.332 52.9446 215.712 52.7549 216.091 52.7549C216.471 52.7549 217.04 52.5651 217.42 52.5651C217.799 52.5651 218.369 52.5651 218.748 52.7549C219.128 52.7549 219.507 52.9446 219.887 53.1344C220.266 53.3241 220.456 53.7037 220.646 53.8934C220.836 54.273 221.025 54.6525 221.025 55.2218H218.938C218.938 54.8422 218.558 54.4627 218.369 54.273C217.799 54.0832 217.42 53.8934 217.04 53.8934C216.851 53.8934 216.661 53.8934 216.471 53.8934C216.281 53.8934 216.091 53.8934 215.902 54.0832C215.712 54.0832 215.522 54.273 215.522 54.273C215.332 54.4627 215.332 54.4627 215.332 54.6525C215.332 54.8422 215.332 55.032 215.522 55.2218C215.712 55.4115 215.902 55.4115 216.091 55.6013C216.281 55.6013 216.661 55.791 217.04 55.791C217.42 55.791 217.799 55.9808 218.179 55.9808C218.558 55.9808 218.938 56.1706 219.128 56.3603C219.507 56.5501 219.697 56.5501 220.076 56.7399C220.456 56.9296 220.646 57.1194 220.646 57.4989C220.836 57.8784 220.836 58.0682 220.836 58.6375C220.836 59.2068 220.646 59.5863 220.456 59.9658C220.266 60.3453 219.887 60.5351 219.507 60.9146C219.317 61.2941 218.938 61.4839 218.558 61.4839C218.179 61.4839 217.61 61.6737 217.23 61.6737C216.661 61.6737 216.091 61.6737 215.712 61.4839C215.332 61.2941 214.763 61.1044 214.573 60.9146C214.194 60.7248 214.004 60.3453 213.814 59.9658C213.435 59.5863 213.245 59.2068 213.245 58.6375H215.143ZM221.595 52.5651H223.113V50.0982H225.01V52.7549H226.718V54.273H225.01V59.017C225.01 59.2068 225.01 59.3965 225.01 59.5863C225.01 59.776 225.01 59.776 225.2 59.9658C225.39 60.1556 225.39 60.1556 225.39 60.1556C225.58 60.1556 225.769 60.1556 225.959 60.1556C226.149 60.1556 226.149 60.1556 226.339 60.1556C226.528 60.1556 226.528 60.1556 226.718 60.1556V61.4839C226.528 61.4839 226.339 61.4839 226.149 61.4839C225.959 61.4839 225.769 61.4839 225.58 61.4839C225.01 61.4839 224.631 61.4839 224.441 61.2941C224.061 61.2941 223.872 61.1044 223.682 60.9146C223.492 60.7248 223.302 60.5351 223.302 60.1556C223.302 59.9658 223.113 59.5863 223.113 59.2068V54.0832H221.595V52.5651ZM228.046 52.5651H229.944V53.8934C230.134 53.3241 230.513 52.9446 231.083 52.7549C231.652 52.5651 232.031 52.3753 232.601 52.3753C233.36 52.3753 233.929 52.5651 234.498 52.7549C235.068 52.9446 235.447 53.3241 235.827 53.7037C236.206 54.0832 236.396 54.6525 236.586 55.2218C236.775 55.791 236.775 56.3603 236.775 57.1194C236.775 57.6887 236.775 58.2579 236.586 58.8272C236.396 59.3965 236.206 59.776 235.827 60.3453C235.447 60.7248 235.068 61.1044 234.688 61.2941C234.119 61.4839 233.739 61.6737 232.98 61.6737C232.79 61.6737 232.411 61.6737 232.221 61.6737C232.031 61.6737 231.652 61.4839 231.462 61.4839C231.272 61.2941 230.893 61.2941 230.703 61.1044C230.513 60.9146 230.324 60.7248 230.134 60.5351V64.8996H228.236V52.5651H228.046ZM234.878 57.1194C234.878 56.7399 234.878 56.3603 234.688 55.9808C234.498 55.6013 234.498 55.2218 234.309 55.032C234.119 54.8422 233.929 54.4627 233.55 54.273C233.17 54.0832 232.98 54.0832 232.411 54.0832C231.652 54.0832 230.893 54.273 230.513 54.8422C230.134 55.4115 229.944 56.1706 229.944 57.1194C229.944 57.4989 229.944 58.0682 230.134 58.2579C230.324 58.6375 230.324 59.017 230.703 59.2068C230.893 59.3965 231.083 59.776 231.462 59.776C231.842 59.9658 232.031 59.9658 232.411 59.9658C232.79 59.9658 233.17 59.9658 233.55 59.776C233.929 59.5863 234.119 59.3965 234.309 59.017C234.498 58.6375 234.688 58.4477 234.688 58.0682C234.688 57.8784 234.878 57.4989 234.878 57.1194ZM238.294 49.3391H240.191V51.2368H238.294V49.3391ZM238.294 52.5651H240.191V61.4839H238.294V52.5651ZM241.899 49.3391H243.797V61.4839H241.899V49.3391ZM249.679 61.6737C248.92 61.6737 248.351 61.4839 247.782 61.2941C247.212 61.1044 246.833 60.7248 246.453 60.3453C246.074 59.9658 245.694 59.3965 245.505 58.8272C245.315 58.2579 245.125 57.6887 245.125 56.9296C245.125 56.1706 245.315 55.6013 245.505 55.032C245.694 54.4627 246.074 53.8934 246.453 53.5139C246.833 53.1344 247.212 52.7549 247.782 52.5651C248.351 52.3753 248.92 52.1856 249.679 52.1856C250.438 52.1856 251.008 52.3753 251.577 52.5651C252.146 52.7549 252.526 53.1344 252.905 53.5139C253.285 53.8934 253.664 54.4627 253.854 55.032C254.044 55.6013 254.234 56.1706 254.234 56.9296C254.234 57.6887 254.044 58.2579 253.854 58.8272C253.664 59.3965 253.285 59.9658 252.905 60.3453C252.526 60.7248 252.146 61.1044 251.577 61.2941C251.008 61.4839 250.438 61.6737 249.679 61.6737ZM249.679 60.1556C250.059 60.1556 250.438 60.1556 250.818 59.9658C251.197 59.776 251.387 59.5863 251.577 59.2068C251.767 58.8272 251.956 58.6375 251.956 58.2579C251.956 57.8784 252.146 57.4989 252.146 57.1194C252.146 56.7399 252.146 56.3603 251.956 55.9808C251.956 55.6013 251.767 55.2218 251.577 55.032C251.387 54.8422 251.197 54.4627 250.818 54.273C250.438 54.0832 250.059 54.0832 249.679 54.0832C249.3 54.0832 248.92 54.0832 248.541 54.273C248.161 54.4627 247.971 54.6525 247.782 55.032C247.592 55.4115 247.402 55.6013 247.402 55.9808C247.402 56.3603 247.212 56.7399 247.212 57.1194C247.212 57.4989 247.212 57.8784 247.402 58.2579C247.402 58.6375 247.592 59.017 247.782 59.2068C247.971 59.5863 248.161 59.776 248.541 59.9658C248.92 59.9658 249.3 60.1556 249.679 60.1556ZM254.803 52.5651H256.321V50.0982H258.219V52.7549H259.926V54.273H258.219V59.017C258.219 59.2068 258.219 59.3965 258.219 59.5863C258.219 59.776 258.219 59.776 258.408 59.9658C258.598 60.1556 258.598 60.1556 258.598 60.1556C258.788 60.1556 258.978 60.1556 259.167 60.1556C259.357 60.1556 259.357 60.1556 259.547 60.1556C259.737 60.1556 259.737 60.1556 259.926 60.1556V61.4839C259.737 61.4839 259.547 61.4839 259.357 61.4839C259.167 61.4839 258.978 61.4839 258.788 61.4839C258.219 61.4839 257.839 61.4839 257.649 61.2941C257.27 61.2941 257.08 61.1044 256.89 60.9146C256.7 60.7248 256.511 60.5351 256.511 60.1556C256.511 59.9658 256.321 59.5863 256.321 59.2068V54.0832H254.803V52.5651Z" fill="#191919"/>
<path d="M186.299 49.3398H177.38L174.724 40.8005L171.877 49.3398H163.148L170.169 54.4633L167.513 63.0026L174.724 57.6893L181.745 63.0026L179.088 54.4633L186.299 49.3398Z" fill="#00B67A"/>
<path d="M179.657 56.3609L179.088 54.4633L174.724 57.6893L179.657 56.3609Z" fill="#005128"/>
<path d="M181.365 68.3155H163.148V86.5326H181.365V68.3155Z" fill="#00B67A"/>
<path d="M200.911 68.3155H182.694V86.5326H200.911V68.3155Z" fill="#00B67A"/>
<path d="M220.646 68.3155H202.429V86.5326H220.646V68.3155Z" fill="#00B67A"/>
<path d="M240.191 68.3155H221.974V86.5326H240.191V68.3155Z" fill="#00B67A"/>
<path d="M259.926 68.3155H241.709V86.5326H259.926V68.3155Z" fill="#DCDCE6"/>
<path d="M241.709 68.3155H250.818V86.3428H241.709V68.3155Z" fill="#00B67A"/>
<path d="M172.067 80.4603L174.913 79.7012L176.052 83.3067L172.067 80.4603ZM178.519 75.906H173.585L172.067 71.3517L170.549 75.906H165.805L169.79 78.7524L168.272 83.3067L172.257 80.4603L174.724 78.7524L178.519 75.906Z" fill="white"/>
<path d="M191.802 80.4603L194.649 79.7012L195.787 83.3067L191.802 80.4603ZM198.065 75.906H193.131L191.613 71.3517L190.095 75.906H185.161L189.146 78.7524L187.628 83.3067L191.613 80.4603L194.08 78.7524L198.065 75.906Z" fill="white"/>
<path d="M211.537 80.4603L214.384 79.7012L215.522 83.3067L211.537 80.4603ZM217.799 75.906H212.865L211.347 71.3517L209.829 75.906H204.895L208.88 78.7524L207.552 83.3067L211.537 80.4603L214.004 78.7524L217.799 75.906Z" fill="white"/>
<path d="M231.083 80.4603L233.929 79.7012L235.068 83.3067L231.083 80.4603ZM237.535 75.906H232.601L231.083 71.3517L229.565 75.906H224.631L228.616 78.7524L227.098 83.3067L231.083 80.4603L233.55 78.7524L237.535 75.906Z" fill="white"/>
<path d="M250.817 80.4603L253.663 79.7012L254.802 83.3067L250.817 80.4603ZM257.079 75.906H252.145L250.627 71.3517L249.299 75.906H244.365L248.35 78.7524L246.832 83.3067L250.817 80.4603L253.284 78.7524L257.079 75.906Z" fill="white"/>
<path d="M332.839 64.2786C332.839 62.6292 332.702 61.4256 332.407 60.1774H313.187V67.622H324.469C324.241 69.4721 323.013 72.2583 320.284 74.1305L320.245 74.3798L326.322 78.9932L326.743 79.0343C330.61 75.5348 332.839 70.3859 332.839 64.2786Z" fill="#4285F4"/>
<path d="M313.186 83.8937C318.713 83.8937 323.353 82.1104 326.742 79.0345L320.282 74.1307C318.554 75.312 316.234 76.1368 313.186 76.1368C307.773 76.1368 303.179 72.6374 301.541 67.8005L301.301 67.8205L294.982 72.6128L294.9 72.8379C298.266 79.391 305.18 83.8937 313.186 83.8937Z" fill="#34A853"/>
<path d="M301.542 67.8006C301.11 66.5524 300.86 65.2149 300.86 63.833C300.86 62.451 301.11 61.1137 301.519 59.8655L301.508 59.5996L295.11 54.7304L294.901 54.828C293.513 57.5473 292.717 60.601 292.717 63.833C292.717 67.065 293.513 70.1186 294.901 72.8379L301.542 67.8006Z" fill="#FBBC05"/>
<path d="M313.186 51.5292C317.03 51.5292 319.623 53.1563 321.101 54.5161L326.878 48.9882C323.33 45.7563 318.713 43.7725 313.186 43.7725C305.18 43.7725 298.266 48.2749 294.9 54.828L301.518 59.8655C303.179 55.0287 307.773 51.5292 313.186 51.5292Z" fill="#EB4335"/>
<path d="M344.376 48.9995C344.522 48.6498 345.017 48.6498 345.163 48.9995L346.922 53.2292C346.983 53.3766 347.122 53.4773 347.281 53.49L351.847 53.8561C352.225 53.8864 352.378 54.3575 352.09 54.6038L348.611 57.584C348.49 57.6878 348.437 57.8508 348.474 58.0061L349.537 62.462C349.625 62.8304 349.224 63.1215 348.901 62.9241L344.991 60.5363C344.855 60.4531 344.684 60.4531 344.548 60.5363L340.638 62.9241C340.315 63.1215 339.914 62.8304 340.002 62.462L341.065 58.0061C341.102 57.8508 341.049 57.6878 340.928 57.584L337.449 54.6038C337.161 54.3575 337.314 53.8864 337.692 53.8561L342.258 53.49C342.417 53.4773 342.556 53.3766 342.617 53.2292L344.376 48.9995Z" fill="#F2F4F7"/>
<path d="M344.376 48.9995C344.522 48.6498 345.017 48.6498 345.163 48.9995L346.922 53.2292C346.983 53.3766 347.122 53.4773 347.281 53.49L351.847 53.8561C352.225 53.8864 352.378 54.3575 352.09 54.6038L348.611 57.584C348.49 57.6878 348.437 57.8508 348.474 58.0061L349.537 62.462C349.625 62.8304 349.224 63.1215 348.901 62.9241L344.991 60.5363C344.855 60.4531 344.684 60.4531 344.548 60.5363L340.638 62.9241C340.315 63.1215 339.914 62.8304 340.002 62.462L341.065 58.0061C341.102 57.8508 341.049 57.6878 340.928 57.584L337.449 54.6038C337.161 54.3575 337.314 53.8864 337.692 53.8561L342.258 53.49C342.417 53.4773 342.556 53.3766 342.617 53.2292L344.376 48.9995Z" fill="#FEC84B"/>
<path d="M361.406 48.9995C361.551 48.6498 362.047 48.6498 362.192 48.9995L363.951 53.2292C364.013 53.3766 364.151 53.4773 364.31 53.49L368.877 53.8561C369.254 53.8864 369.407 54.3575 369.12 54.6038L365.641 57.584C365.519 57.6878 365.466 57.8508 365.503 58.0061L366.566 62.462C366.654 62.8304 366.253 63.1215 365.93 62.9241L362.021 60.5363C361.885 60.4531 361.713 60.4531 361.577 60.5363L357.668 62.9241C357.344 63.1215 356.944 62.8304 357.032 62.462L358.095 58.0061C358.132 57.8508 358.079 57.6878 357.957 57.584L354.478 54.6038C354.191 54.3575 354.344 53.8864 354.721 53.8561L359.288 53.49C359.447 53.4773 359.585 53.3766 359.647 53.2292L361.406 48.9995Z" fill="#F2F4F7"/>
<path d="M361.406 48.9995C361.551 48.6498 362.047 48.6498 362.192 48.9995L363.951 53.2292C364.013 53.3766 364.151 53.4773 364.31 53.49L368.877 53.8561C369.254 53.8864 369.407 54.3575 369.12 54.6038L365.641 57.584C365.519 57.6878 365.466 57.8508 365.503 58.0061L366.566 62.462C366.654 62.8304 366.253 63.1215 365.93 62.9241L362.021 60.5363C361.885 60.4531 361.713 60.4531 361.577 60.5363L357.668 62.9241C357.344 63.1215 356.944 62.8304 357.032 62.462L358.095 58.0061C358.132 57.8508 358.079 57.6878 357.957 57.584L354.478 54.6038C354.191 54.3575 354.344 53.8864 354.721 53.8561L359.288 53.49C359.447 53.4773 359.585 53.3766 359.647 53.2292L361.406 48.9995Z" fill="#FEC84B"/>
<path d="M378.435 48.9995C378.581 48.6498 379.076 48.6498 379.222 48.9995L380.981 53.2292C381.042 53.3766 381.181 53.4773 381.34 53.49L385.906 53.8561C386.284 53.8864 386.437 54.3575 386.149 54.6038L382.67 57.584C382.549 57.6878 382.496 57.8508 382.533 58.0061L383.596 62.462C383.684 62.8304 383.283 63.1215 382.96 62.9241L379.05 60.5363C378.914 60.4531 378.743 60.4531 378.606 60.5363L374.697 62.9241C374.374 63.1215 373.973 62.8304 374.061 62.462L375.124 58.0061C375.161 57.8508 375.108 57.6878 374.987 57.584L371.508 54.6038C371.22 54.3575 371.373 53.8864 371.751 53.8561L376.317 53.49C376.476 53.4773 376.615 53.3766 376.676 53.2292L378.435 48.9995Z" fill="#F2F4F7"/>
<path d="M378.435 48.9995C378.581 48.6498 379.076 48.6498 379.222 48.9995L380.981 53.2292C381.042 53.3766 381.181 53.4773 381.34 53.49L385.906 53.8561C386.284 53.8864 386.437 54.3575 386.149 54.6038L382.67 57.584C382.549 57.6878 382.496 57.8508 382.533 58.0061L383.596 62.462C383.684 62.8304 383.283 63.1215 382.96 62.9241L379.05 60.5363C378.914 60.4531 378.743 60.4531 378.606 60.5363L374.697 62.9241C374.374 63.1215 373.973 62.8304 374.061 62.462L375.124 58.0061C375.161 57.8508 375.108 57.6878 374.987 57.584L371.508 54.6038C371.22 54.3575 371.373 53.8864 371.751 53.8561L376.317 53.49C376.476 53.4773 376.615 53.3766 376.676 53.2292L378.435 48.9995Z" fill="#FEC84B"/>
<path d="M395.465 48.9995C395.61 48.6498 396.106 48.6498 396.251 48.9995L398.01 53.2292C398.071 53.3766 398.21 53.4773 398.369 53.49L402.936 53.8561C403.313 53.8864 403.466 54.3575 403.178 54.6038L399.699 57.584C399.578 57.6878 399.525 57.8508 399.562 58.0061L400.625 62.462C400.713 62.8304 400.312 63.1215 399.989 62.9241L396.08 60.5363C395.944 60.4531 395.772 60.4531 395.636 60.5363L391.727 62.9241C391.403 63.1215 391.003 62.8304 391.091 62.462L392.153 58.0061C392.19 57.8508 392.138 57.6878 392.016 57.584L388.537 54.6038C388.25 54.3575 388.403 53.8864 388.78 53.8561L393.346 53.49C393.506 53.4773 393.644 53.3766 393.706 53.2292L395.465 48.9995Z" fill="#F2F4F7"/>
<path d="M395.465 48.9995C395.61 48.6498 396.106 48.6498 396.251 48.9995L398.01 53.2292C398.071 53.3766 398.21 53.4773 398.369 53.49L402.936 53.8561C403.313 53.8864 403.466 54.3575 403.178 54.6038L399.699 57.584C399.578 57.6878 399.525 57.8508 399.562 58.0061L400.625 62.462C400.713 62.8304 400.312 63.1215 399.989 62.9241L396.08 60.5363C395.944 60.4531 395.772 60.4531 395.636 60.5363L391.727 62.9241C391.403 63.1215 391.003 62.8304 391.091 62.462L392.153 58.0061C392.19 57.8508 392.138 57.6878 392.016 57.584L388.537 54.6038C388.25 54.3575 388.403 53.8864 388.78 53.8561L393.346 53.49C393.506 53.4773 393.644 53.3766 393.706 53.2292L395.465 48.9995Z" fill="#FEC84B"/>
<path d="M412.494 48.9995C412.64 48.6498 413.135 48.6498 413.28 48.9995L415.04 53.2292C415.101 53.3766 415.24 53.4773 415.399 53.49L419.965 53.8561C420.342 53.8864 420.496 54.3575 420.208 54.6038L416.729 57.584C416.608 57.6878 416.555 57.8508 416.592 58.0061L417.655 62.462C417.743 62.8304 417.342 63.1215 417.019 62.9241L413.109 60.5363C412.973 60.4531 412.802 60.4531 412.665 60.5363L408.756 62.9241C408.433 63.1215 408.032 62.8304 408.12 62.462L409.183 58.0061C409.22 57.8508 409.167 57.6878 409.046 57.584L405.567 54.6038C405.279 54.3575 405.432 53.8864 405.81 53.8561L410.376 53.49C410.535 53.4773 410.674 53.3766 410.735 53.2292L412.494 48.9995Z" fill="#F2F4F7"/>
<path d="M412.494 48.9995C412.64 48.6498 413.135 48.6498 413.28 48.9995L415.04 53.2292C415.101 53.3766 415.24 53.4773 415.399 53.49L419.965 53.8561C420.342 53.8864 420.496 54.3575 420.208 54.6038L416.729 57.584C416.608 57.6878 416.555 57.8508 416.592 58.0061L417.655 62.462C417.743 62.8304 417.342 63.1215 417.019 62.9241L413.109 60.5363C412.973 60.4531 412.802 60.4531 412.665 60.5363L408.756 62.9241C408.433 63.1215 408.032 62.8304 408.12 62.462L409.183 58.0061C409.22 57.8508 409.167 57.6878 409.046 57.584L405.567 54.6038C405.279 54.3575 405.432 53.8864 405.81 53.8561L410.376 53.49C410.535 53.4773 410.674 53.3766 410.735 53.2292L412.494 48.9995Z" fill="#FEC84B"/>
<path d="M336.839 76.1459V74.6711L340.537 68.8452H341.808V70.8867H341.056L338.724 74.5759V74.6451H343.979V76.1459H336.839ZM341.09 77.7029V75.6961L341.125 75.043V68.8452H342.881V77.7029H341.09Z" fill="#667085"/>
<path d="M346.155 77.8154C345.869 77.8154 345.624 77.7145 345.42 77.5126C345.218 77.3079 345.117 77.0628 345.117 76.7774C345.117 76.4948 345.218 76.2526 345.42 76.0508C345.624 75.8489 345.869 75.748 346.155 75.748C346.432 75.748 346.674 75.8489 346.881 76.0508C347.089 76.2526 347.193 76.4948 347.193 76.7774C347.193 76.9677 347.144 77.1421 347.046 77.3007C346.951 77.4564 346.825 77.5819 346.67 77.677C346.514 77.7693 346.342 77.8154 346.155 77.8154Z" fill="#667085"/>
<path d="M351.636 77.8241C350.97 77.8241 350.377 77.7159 349.858 77.4997C349.342 77.2805 348.937 76.9821 348.643 76.6044C348.349 76.2267 348.202 75.7985 348.202 75.3198C348.202 74.9508 348.285 74.612 348.453 74.3035C348.623 73.992 348.853 73.734 349.145 73.5293C349.436 73.3217 349.762 73.189 350.122 73.1314V73.0708C349.649 72.9757 349.266 72.7464 348.972 72.3831C348.677 72.0169 348.53 71.5916 348.53 71.1072C348.53 70.6488 348.664 70.2408 348.933 69.8832C349.201 69.5228 349.568 69.2402 350.035 69.0355C350.505 68.8279 351.039 68.7241 351.636 68.7241C352.233 68.7241 352.765 68.8279 353.232 69.0355C353.702 69.2431 354.071 69.5271 354.339 69.8876C354.607 70.2451 354.743 70.6517 354.745 71.1072C354.743 71.5945 354.593 72.0198 354.296 72.3831C353.999 72.7464 353.618 72.9757 353.154 73.0708V73.1314C353.509 73.189 353.83 73.3217 354.118 73.5293C354.41 73.734 354.64 73.992 354.81 74.3035C354.983 74.612 355.071 74.9508 355.074 75.3198C355.071 75.7985 354.923 76.2267 354.629 76.6044C354.335 76.9821 353.928 77.2805 353.409 77.4997C352.893 77.7159 352.302 77.8241 351.636 77.8241ZM351.636 76.4487C351.933 76.4487 352.192 76.3953 352.414 76.2887C352.636 76.1791 352.809 76.0292 352.933 75.8389C353.06 75.6457 353.124 75.4236 353.124 75.1728C353.124 74.9162 353.059 74.6898 352.929 74.4938C352.799 74.2948 352.623 74.1391 352.401 74.0266C352.179 73.9113 351.924 73.8536 351.636 73.8536C351.35 73.8536 351.095 73.9113 350.87 74.0266C350.645 74.1391 350.468 74.2948 350.338 74.4938C350.211 74.6898 350.148 74.9162 350.148 75.1728C350.148 75.4236 350.21 75.6457 350.334 75.8389C350.458 76.0292 350.632 76.1791 350.857 76.2887C351.082 76.3953 351.342 76.4487 351.636 76.4487ZM351.636 72.4913C351.884 72.4913 352.104 72.4408 352.297 72.3399C352.491 72.239 352.642 72.0991 352.752 71.9203C352.861 71.7416 352.916 71.5354 352.916 71.3019C352.916 71.0712 352.861 70.8694 352.752 70.6964C352.642 70.5205 352.492 70.3835 352.302 70.2855C352.112 70.1846 351.889 70.1341 351.636 70.1341C351.385 70.1341 351.163 70.1846 350.97 70.2855C350.777 70.3835 350.625 70.5205 350.516 70.6964C350.409 70.8694 350.356 71.0712 350.356 71.3019C350.356 71.5354 350.41 71.7416 350.52 71.9203C350.629 72.0991 350.781 72.239 350.974 72.3399C351.167 72.4408 351.388 72.4913 351.636 72.4913Z" fill="#667085"/>
<path d="M360.805 74.7802L360.285 74.9273C360.252 74.8407 360.204 74.7565 360.14 74.6748C360.078 74.5914 359.993 74.5227 359.885 74.4688C359.778 74.4148 359.639 74.3879 359.471 74.3879C359.241 74.3879 359.049 74.441 358.895 74.5473C358.743 74.6519 358.667 74.7851 358.667 74.9469C358.667 75.0908 358.719 75.2044 358.824 75.2878C358.928 75.3711 359.092 75.4406 359.314 75.4962L359.873 75.6335C360.21 75.7152 360.461 75.8403 360.626 76.0086C360.791 76.1754 360.874 76.3903 360.874 76.6535C360.874 76.8693 360.812 77.0622 360.687 77.2322C360.565 77.4022 360.393 77.5362 360.172 77.6343C359.952 77.7324 359.695 77.7814 359.402 77.7814C359.018 77.7814 358.7 77.698 358.449 77.5313C358.197 77.3646 358.038 77.121 357.97 76.8006L358.52 76.6633C358.572 76.866 358.671 77.018 358.816 77.1194C358.964 77.2207 359.156 77.2714 359.393 77.2714C359.662 77.2714 359.877 77.2142 360.035 77.0998C360.195 76.9837 360.275 76.8448 360.275 76.6829C360.275 76.5522 360.23 76.4426 360.138 76.3544C360.047 76.2645 359.906 76.1974 359.716 76.1533L359.089 76.0062C358.744 75.9244 358.49 75.7978 358.328 75.6261C358.168 75.4529 358.088 75.2363 358.088 74.9763C358.088 74.7638 358.148 74.5759 358.267 74.4124C358.388 74.2489 358.552 74.1206 358.76 74.0274C358.969 73.9343 359.206 73.8877 359.471 73.8877C359.844 73.8877 360.136 73.9694 360.349 74.1329C360.563 74.2963 360.715 74.5121 360.805 74.7802Z" fill="#667085"/>
<path d="M363.383 73.9367V74.4271H361.431V73.9367H363.383ZM362 73.0344H362.578V76.6241C362.578 76.7875 362.602 76.9101 362.649 76.9919C362.699 77.072 362.761 77.1259 362.836 77.1537C362.913 77.1799 362.994 77.1929 363.079 77.1929C363.142 77.1929 363.195 77.1897 363.236 77.1831C363.276 77.175 363.309 77.1684 363.334 77.1635L363.451 77.6833C363.412 77.698 363.357 77.7128 363.287 77.7275C363.217 77.7438 363.128 77.752 363.02 77.752C362.856 77.752 362.696 77.7168 362.539 77.6466C362.384 77.5763 362.255 77.4692 362.152 77.3253C362.05 77.1815 362 77 362 76.781V73.0344Z" fill="#667085"/>
<path d="M365.361 77.7912C365.123 77.7912 364.906 77.7463 364.712 77.6564C364.517 77.5648 364.363 77.4332 364.248 77.2616C364.134 77.0883 364.077 76.8791 364.077 76.6339C364.077 76.4181 364.119 76.2432 364.204 76.1092C364.289 75.9735 364.403 75.8672 364.545 75.7904C364.687 75.7136 364.844 75.6564 365.016 75.6188C365.189 75.5795 365.363 75.5485 365.538 75.5256C365.767 75.4962 365.952 75.4741 366.095 75.4594C366.238 75.443 366.343 75.4161 366.408 75.3785C366.475 75.3409 366.509 75.2755 366.509 75.1823V75.1627C366.509 74.9208 366.443 74.7328 366.31 74.5987C366.18 74.4647 365.981 74.3977 365.714 74.3977C365.438 74.3977 365.222 74.4582 365.065 74.5791C364.908 74.7001 364.797 74.8292 364.734 74.9665L364.184 74.7704C364.283 74.5415 364.413 74.3634 364.577 74.2359C364.742 74.1067 364.922 74.0168 365.116 73.9661C365.312 73.9138 365.505 73.8877 365.695 73.8877C365.816 73.8877 365.955 73.9024 366.112 73.9318C366.27 73.9596 366.423 74.0176 366.57 74.1059C366.719 74.1942 366.842 74.3274 366.94 74.5056C367.039 74.6837 367.088 74.9224 367.088 75.2215V77.7029H366.509V77.1929H366.479C366.44 77.2747 366.375 77.3621 366.283 77.4553C366.192 77.5485 366.07 77.6278 365.918 77.6931C365.766 77.7585 365.58 77.7912 365.361 77.7912ZM365.45 77.2714C365.678 77.2714 365.871 77.2264 366.028 77.1365C366.187 77.0466 366.306 76.9306 366.386 76.7884C366.468 76.6461 366.509 76.4966 366.509 76.3396V75.81C366.484 75.8394 366.43 75.8664 366.347 75.8909C366.265 75.9138 366.171 75.9343 366.063 75.9522C365.956 75.9686 365.853 75.9833 365.751 75.9964C365.652 76.0078 365.571 76.0176 365.508 76.0258C365.358 76.0454 365.218 76.0773 365.087 76.1214C364.958 76.1639 364.853 76.2285 364.773 76.3151C364.694 76.4001 364.655 76.5162 364.655 76.6633C364.655 76.8644 364.73 77.0164 364.878 77.1194C365.029 77.2207 365.219 77.2714 365.45 77.2714Z" fill="#667085"/>
<path d="M368.144 77.7029V73.9367H368.703V74.5056H368.742C368.811 74.3192 368.935 74.168 369.115 74.052C369.295 73.9359 369.497 73.8779 369.723 73.8779C369.765 73.8779 369.818 73.8787 369.882 73.8803C369.946 73.8819 369.994 73.8844 370.027 73.8877V74.4761C370.007 74.4712 369.962 74.4639 369.892 74.4541C369.823 74.4426 369.751 74.4369 369.674 74.4369C369.491 74.4369 369.327 74.4753 369.183 74.5522C369.041 74.6273 368.928 74.732 368.845 74.866C368.763 74.9984 368.722 75.1496 368.722 75.3196V77.7029H368.144Z" fill="#667085"/>
<path d="M373.381 74.7802L372.861 74.9273C372.828 74.8407 372.78 74.7565 372.716 74.6748C372.654 74.5914 372.569 74.5227 372.461 74.4688C372.353 74.4148 372.215 74.3879 372.047 74.3879C371.816 74.3879 371.624 74.441 371.47 74.5473C371.318 74.6519 371.242 74.7851 371.242 74.9469C371.242 75.0908 371.295 75.2044 371.399 75.2878C371.504 75.3711 371.667 75.4406 371.89 75.4962L372.449 75.6335C372.786 75.7152 373.036 75.8403 373.202 76.0086C373.367 76.1754 373.449 76.3903 373.449 76.6535C373.449 76.8693 373.387 77.0622 373.263 77.2322C373.14 77.4022 372.969 77.5362 372.748 77.6343C372.527 77.7324 372.271 77.7814 371.978 77.7814C371.594 77.7814 371.276 77.698 371.024 77.5313C370.772 77.3646 370.613 77.121 370.546 76.8006L371.095 76.6633C371.148 76.866 371.247 77.018 371.392 77.1194C371.539 77.2207 371.731 77.2714 371.968 77.2714C372.238 77.2714 372.452 77.2142 372.611 77.0998C372.771 76.9837 372.851 76.8448 372.851 76.6829C372.851 76.5522 372.805 76.4426 372.714 76.3544C372.622 76.2645 372.482 76.1974 372.292 76.1533L371.664 76.0062C371.319 75.9244 371.066 75.7978 370.904 75.6261C370.744 75.4529 370.664 75.2363 370.664 74.9763C370.664 74.7638 370.723 74.5759 370.843 74.4124C370.964 74.2489 371.128 74.1206 371.336 74.0274C371.545 73.9343 371.782 73.8877 372.047 73.8877C372.419 73.8877 372.712 73.9694 372.925 74.1329C373.139 74.2963 373.291 74.5121 373.381 74.7802Z" fill="#667085"/>
<path d="M375.183 77.0164L375.144 77.2812C375.116 77.4676 375.074 77.667 375.017 77.8795C374.961 78.092 374.903 78.2922 374.843 78.4802C374.782 78.6682 374.732 78.8178 374.693 78.9289H374.252C374.273 78.8243 374.301 78.6862 374.335 78.5146C374.369 78.3429 374.404 78.1508 374.438 77.9383C374.474 77.7275 374.503 77.5117 374.526 77.291L374.556 77.0164H375.183Z" fill="#667085"/>
<path d="M379.948 77.7716C379.571 77.7716 379.235 77.7103 378.94 77.5877C378.648 77.4635 378.418 77.2943 378.251 77.0801C378.085 76.866 378.001 76.6233 378.001 76.3519C378.001 76.1427 378.049 75.9506 378.144 75.7757C378.24 75.5992 378.371 75.4529 378.536 75.3368C378.701 75.2191 378.886 75.1439 379.09 75.1112V75.0769C378.822 75.0229 378.605 74.893 378.438 74.687C378.271 74.4794 378.188 74.2383 378.188 73.9637C378.188 73.7038 378.264 73.4725 378.416 73.2698C378.568 73.0654 378.776 72.9052 379.041 72.7892C379.307 72.6715 379.61 72.6126 379.948 72.6126C380.287 72.6126 380.588 72.6715 380.853 72.7892C381.119 72.9069 381.329 73.0679 381.481 73.2722C381.633 73.4749 381.71 73.7054 381.711 73.9637C381.71 74.2399 381.625 74.481 381.456 74.687C381.288 74.893 381.072 75.0229 380.809 75.0769V75.1112C381.01 75.1439 381.192 75.2191 381.356 75.3368C381.521 75.4529 381.652 75.5992 381.748 75.7757C381.846 75.9506 381.896 76.1427 381.898 76.3519C381.896 76.6233 381.812 76.866 381.645 77.0801C381.478 77.2943 381.248 77.4635 380.954 77.5877C380.661 77.7103 380.326 77.7716 379.948 77.7716ZM379.948 76.9919C380.117 76.9919 380.264 76.9616 380.39 76.9012C380.515 76.839 380.614 76.754 380.684 76.6461C380.756 76.5366 380.792 76.4108 380.792 76.2685C380.792 76.1231 380.755 75.9947 380.681 75.8836C380.608 75.7708 380.508 75.6825 380.382 75.6188C380.256 75.5534 380.112 75.5207 379.948 75.5207C379.786 75.5207 379.642 75.5534 379.514 75.6188C379.387 75.6825 379.286 75.7708 379.213 75.8836C379.141 75.9947 379.105 76.1231 379.105 76.2685C379.105 76.4108 379.14 76.5366 379.21 76.6461C379.28 76.754 379.379 76.839 379.507 76.9012C379.634 76.9616 379.781 76.9919 379.948 76.9919ZM379.948 74.7483C380.089 74.7483 380.214 74.7197 380.323 74.6625C380.433 74.6053 380.519 74.526 380.581 74.4247C380.643 74.3233 380.674 74.2064 380.674 74.074C380.674 73.9432 380.643 73.8288 380.581 73.7307C380.519 73.631 380.434 73.5534 380.326 73.4978C380.218 73.4406 380.092 73.412 379.948 73.412C379.806 73.412 379.68 73.4406 379.571 73.4978C379.461 73.5534 379.375 73.631 379.313 73.7307C379.253 73.8288 379.222 73.9432 379.222 74.074C379.222 74.2064 379.253 74.3233 379.316 74.4247C379.378 74.526 379.464 74.6053 379.573 74.6625C379.683 74.7197 379.808 74.7483 379.948 74.7483Z" fill="#667085"/>
<path d="M384.496 77.7716C384.13 77.7716 383.804 77.7087 383.518 77.5828C383.233 77.4553 383.008 77.2804 382.843 77.0581C382.68 76.8341 382.596 76.5759 382.591 76.2833H383.66C383.666 76.4059 383.706 76.5137 383.78 76.6069C383.855 76.6985 383.955 76.7696 384.079 76.8202C384.203 76.8709 384.343 76.8962 384.498 76.8962C384.66 76.8962 384.803 76.8676 384.928 76.8104C385.052 76.7532 385.149 76.6739 385.219 76.5726C385.29 76.4712 385.325 76.3544 385.325 76.222C385.325 76.0879 385.287 75.9694 385.212 75.8664C385.138 75.7618 385.032 75.6801 384.893 75.6212C384.756 75.5624 384.592 75.5329 384.403 75.5329H383.935V74.7532H384.403C384.563 74.7532 384.704 74.7254 384.827 74.6699C384.951 74.6143 385.048 74.5374 385.116 74.4394C385.185 74.3397 385.219 74.2236 385.219 74.0912C385.219 73.9653 385.189 73.855 385.129 73.7602C385.07 73.6637 384.986 73.5885 384.879 73.5346C384.772 73.4806 384.648 73.4537 384.506 73.4537C384.362 73.4537 384.23 73.4798 384.111 73.5321C383.992 73.5828 383.896 73.6555 383.824 73.7504C383.752 73.8452 383.714 73.9563 383.709 74.0838H382.691C382.696 73.7945 382.779 73.5395 382.939 73.3188C383.099 73.0981 383.315 72.9257 383.586 72.8014C383.859 72.6756 384.167 72.6126 384.511 72.6126C384.857 72.6126 385.16 72.6756 385.42 72.8014C385.68 72.9273 385.882 73.0973 386.026 73.3115C386.172 73.524 386.243 73.7626 386.242 74.0274C386.243 74.3086 386.156 74.5432 385.979 74.7312C385.805 74.9191 385.577 75.0385 385.295 75.0891V75.1284C385.665 75.1758 385.946 75.3041 386.139 75.5133C386.333 75.7209 386.43 75.9808 386.428 76.2931C386.43 76.5791 386.347 76.8333 386.181 77.0556C386.015 77.2779 385.787 77.4529 385.496 77.5804C385.205 77.7079 384.872 77.7716 384.496 77.7716Z" fill="#667085"/>
<path d="M389.376 72.6813V77.7029H388.314V73.6891H388.285L387.135 74.4099V73.4684L388.378 72.6813H389.376Z" fill="#667085"/>
<path d="M392.634 77.7029V73.9367H393.193V74.5056H393.232C393.301 74.3192 393.425 74.168 393.605 74.052C393.785 73.9359 393.988 73.8779 394.213 73.8779C394.256 73.8779 394.309 73.8787 394.373 73.8803C394.436 73.8819 394.485 73.8844 394.517 73.8877V74.4761C394.498 74.4712 394.453 74.4639 394.382 74.4541C394.314 74.4426 394.241 74.4369 394.164 74.4369C393.981 74.4369 393.818 74.4753 393.674 74.5522C393.532 74.6273 393.419 74.732 393.335 74.866C393.254 74.9984 393.213 75.1496 393.213 75.3196V77.7029H392.634Z" fill="#667085"/>
<path d="M396.668 77.7814C396.305 77.7814 395.992 77.7013 395.729 77.5411C395.467 77.3793 395.265 77.1537 395.123 76.8644C394.982 76.5734 394.912 76.235 394.912 75.8493C394.912 75.4635 394.982 75.1235 395.123 74.8292C395.265 74.5334 395.463 74.3029 395.716 74.1378C395.971 73.971 396.269 73.8877 396.609 73.8877C396.805 73.8877 396.999 73.9204 397.19 73.9857C397.381 74.0511 397.555 74.1574 397.712 74.3045C397.869 74.45 397.994 74.6429 398.087 74.8832C398.181 75.1235 398.227 75.4193 398.227 75.7708V76.016H395.324V75.5158H397.639C397.639 75.3033 397.596 75.1137 397.511 74.9469C397.428 74.7802 397.308 74.6486 397.153 74.5522C396.999 74.4557 396.818 74.4075 396.609 74.4075C396.378 74.4075 396.179 74.4647 396.011 74.5791C395.844 74.6919 395.715 74.839 395.626 75.0205C395.536 75.2019 395.491 75.3965 395.491 75.6041V75.9375C395.491 76.222 395.54 76.4631 395.638 76.6609C395.738 76.857 395.876 77.0066 396.052 77.1096C396.229 77.2109 396.434 77.2616 396.668 77.2616C396.82 77.2616 396.957 77.2403 397.08 77.1978C397.204 77.1537 397.311 77.0883 397.401 77.0017C397.491 76.9134 397.56 76.8039 397.609 76.6731L398.168 76.83C398.109 77.0197 398.011 77.1864 397.872 77.3302C397.733 77.4725 397.561 77.5836 397.357 77.6637C397.152 77.7422 396.923 77.7814 396.668 77.7814Z" fill="#667085"/>
<path d="M402.072 73.9367L400.68 77.7029H400.091L398.699 73.9367H399.326L400.366 76.9379H400.405L401.445 73.9367H402.072Z" fill="#667085"/>
<path d="M402.836 77.7029V73.9367H403.415V77.7029H402.836ZM403.13 73.309C403.018 73.309 402.92 73.2706 402.839 73.1938C402.759 73.1169 402.719 73.0246 402.719 72.9167C402.719 72.8088 402.759 72.7164 402.839 72.6396C402.92 72.5628 403.018 72.5244 403.13 72.5244C403.243 72.5244 403.34 72.5628 403.42 72.6396C403.502 72.7164 403.542 72.8088 403.542 72.9167C403.542 73.0246 403.502 73.1169 403.42 73.1938C403.34 73.2706 403.243 73.309 403.13 73.309Z" fill="#667085"/>
<path d="M406.054 77.7814C405.691 77.7814 405.378 77.7013 405.115 77.5411C404.853 77.3793 404.651 77.1537 404.509 76.8644C404.368 76.5734 404.298 76.235 404.298 75.8493C404.298 75.4635 404.368 75.1235 404.509 74.8292C404.651 74.5334 404.849 74.3029 405.102 74.1378C405.357 73.971 405.655 73.8877 405.995 73.8877C406.191 73.8877 406.385 73.9204 406.576 73.9857C406.767 74.0511 406.941 74.1574 407.098 74.3045C407.255 74.45 407.38 74.6429 407.474 74.8832C407.567 75.1235 407.613 75.4193 407.613 75.7708V76.016H404.71V75.5158H407.025C407.025 75.3033 406.982 75.1137 406.897 74.9469C406.814 74.7802 406.695 74.6486 406.539 74.5522C406.386 74.4557 406.204 74.4075 405.995 74.4075C405.764 74.4075 405.565 74.4647 405.397 74.5791C405.23 74.6919 405.102 74.839 405.012 75.0205C404.922 75.2019 404.877 75.3965 404.877 75.6041V75.9375C404.877 76.222 404.926 76.4631 405.024 76.6609C405.124 76.857 405.262 77.0066 405.438 77.1096C405.615 77.2109 405.82 77.2616 406.054 77.2616C406.206 77.2616 406.343 77.2403 406.466 77.1978C406.59 77.1537 406.697 77.0883 406.787 77.0017C406.877 76.9134 406.946 76.8039 406.995 76.6731L407.554 76.83C407.496 77.0197 407.397 77.1864 407.258 77.3302C407.119 77.4725 406.947 77.5836 406.743 77.6637C406.539 77.7422 406.309 77.7814 406.054 77.7814Z" fill="#667085"/>
<path d="M409.347 77.7029L408.199 73.9367H408.807L409.621 76.8202H409.661L410.465 73.9367H411.083L411.877 76.8104H411.917L412.731 73.9367H413.339L412.191 77.7029H411.622L410.798 74.8096H410.74L409.916 77.7029H409.347Z" fill="#667085"/>
<path d="M416.771 74.7802L416.252 74.9273C416.219 74.8407 416.171 74.7565 416.107 74.6748C416.045 74.5914 415.96 74.5227 415.852 74.4688C415.744 74.4148 415.606 74.3879 415.438 74.3879C415.207 74.3879 415.015 74.441 414.861 74.5473C414.709 74.6519 414.633 74.7851 414.633 74.9469C414.633 75.0908 414.686 75.2044 414.79 75.2878C414.895 75.3711 415.058 75.4406 415.281 75.4962L415.84 75.6335C416.176 75.7152 416.427 75.8403 416.592 76.0086C416.758 76.1754 416.84 76.3903 416.84 76.6535C416.84 76.8693 416.778 77.0622 416.654 77.2322C416.531 77.4022 416.36 77.5362 416.139 77.6343C415.918 77.7324 415.662 77.7814 415.369 77.7814C414.985 77.7814 414.667 77.698 414.415 77.5313C414.163 77.3646 414.004 77.121 413.937 76.8006L414.486 76.6633C414.538 76.866 414.637 77.018 414.783 77.1194C414.93 77.2207 415.122 77.2714 415.359 77.2714C415.629 77.2714 415.843 77.2142 416.002 77.0998C416.162 76.9837 416.242 76.8448 416.242 76.6829C416.242 76.5522 416.196 76.4426 416.104 76.3544C416.013 76.2645 415.872 76.1974 415.683 76.1533L415.055 76.0062C414.71 75.9244 414.457 75.7978 414.295 75.6261C414.135 75.4529 414.055 75.2363 414.055 74.9763C414.055 74.7638 414.114 74.5759 414.234 74.4124C414.355 74.2489 414.519 74.1206 414.726 74.0274C414.936 73.9343 415.173 73.8877 415.438 73.8877C415.81 73.8877 416.103 73.9694 416.315 74.1329C416.53 74.2963 416.682 74.5121 416.771 74.7802Z" fill="#667085"/>
</svg>
